<?xml version="1.0" standalone="no"?>
<!DOCTYPE svg PUBLIC "-//W3C//DTD SVG 20010904//EN"
 "http://www.w3.org/TR/2001/REC-SVG-20010904/DTD/svg10.dtd">
<svg version="1.0" xmlns="http://www.w3.org/2000/svg"
 width="276.000000pt" height="242.000000pt" viewBox="0 0 276.000000 242.000000"
 preserveAspectRatio="xMidYMid meet">
<metadata>
Created by potrace 1.15, written by Peter Selinger 2001-2017
</metadata>
<g transform="translate(0.000000,242.000000) scale(0.100000,-0.100000)"
fill="#000000" stroke="none">
<path d="M1310 2316 c-26 -59 -32 -65 -62 -68 -29 -3 -39 3 -83 50 l-50 54
-94 -33 -93 -32 4 -74 c5 -73 5 -74 -23 -88 -25 -14 -33 -12 -99 17 l-71 32
-77 -77 -76 -76 29 -61 29 -60 -21 -28 c-19 -25 -26 -27 -89 -27 l-68 0 -38
-78 c-57 -118 -57 -119 -3 -158 43 -31 46 -36 43 -74 l-3 -40 -72 -23 -73 -24
0 -118 c0 -125 2 -130 50 -130 11 0 30 -10 43 -22 21 -19 24 -30 20 -66 -5
-37 -10 -46 -44 -65 -21 -12 -39 -26 -39 -31 0 -9 79 -198 85 -205 2 -2 19 2
36 8 44 15 97 4 115 -24 15 -24 14 -32 -27 -133 l-13 -32 79 -73 79 -73 59 30
c80 41 91 34 97 -74 l5 -83 100 -43 100 -43 15 21 c8 11 28 34 44 50 24 24 36
29 60 24 49 -10 66 -33 66 -88 l0 -48 84 0 c120 0 146 7 146 38 0 13 10 40 21
59 20 32 25 35 58 30 26 -5 46 -18 73 -48 l36 -42 104 30 103 31 -3 67 c-3 52
0 70 13 85 15 17 21 17 62 5 25 -8 53 -21 62 -29 28 -26 43 -19 110 48 l64 65
-12 58 c-7 33 -11 70 -9 84 3 22 7 24 53 24 28 -1 57 -4 66 -9 13 -6 25 13 63
100 26 58 46 108 44 109 -2 1 -22 14 -45 28 l-41 26 10 43 c5 24 12 46 16 49
4 3 33 11 64 18 l57 12 3 107 c2 59 -1 111 -5 117 -4 5 -34 17 -65 25 -55 15
-57 16 -60 52 -3 35 1 40 51 79 l54 42 -33 111 c-27 92 -36 111 -51 109 -10
-1 -39 -5 -64 -9 -43 -6 -48 -4 -67 23 l-21 30 38 65 38 65 -74 89 c-40 49
-77 89 -81 89 -4 0 -27 -12 -52 -27 -42 -25 -49 -26 -84 -16 l-38 12 7 81 6
81 -92 42 -93 42 -52 -51 c-46 -45 -55 -50 -90 -47 l-38 3 -19 78 -19 77 -105
0 -104 0 -29 -64z m300 -350 c181 -64 311 -181 403 -361 60 -118 72 -172 71
-325 0 -128 -2 -140 -33 -220 -18 -47 -39 -102 -47 -124 -8 -21 -38 -65 -67
-98 -184 -212 -453 -308 -708 -252 -189 42 -391 200 -477 374 -58 116 -75 204
-70 355 8 204 66 334 218 485 68 68 102 94 170 128 123 60 181 72 335 68 111
-2 141 -7 205 -30z"/>
<path d="M791 1611 c-12 -8 -13 -12 -1 -26 11 -13 9 -20 -14 -44 l-28 -29 53
-67 52 -66 48 47 49 48 30 -29 c16 -16 30 -34 30 -41 0 -6 -18 -47 -39 -90
-46 -92 -80 -209 -84 -285 -2 -48 0 -54 18 -54 17 0 21 9 26 50 12 97 64 250
103 306 14 21 15 21 31 -12 32 -61 64 -170 76 -256 12 -84 27 -109 51 -85 10
10 -3 133 -19 181 -3 9 9 -1 27 -22 78 -92 213 -114 309 -50 14 9 33 16 42 15
9 -2 22 4 29 13 7 8 18 15 24 15 7 0 52 -34 100 -75 48 -41 90 -75 92 -75 3 0
4 6 3 13 -4 34 8 50 87 121 l87 76 29 -21 c16 -12 30 -20 32 -18 15 20 36 55
36 60 0 4 -23 9 -52 11 -45 5 -62 1 -132 -34 l-81 -39 -3 26 c-4 27 10 47 86
134 l39 44 22 -22 c13 -13 24 -21 25 -19 9 9 26 48 26 56 0 6 -18 13 -39 17
-29 5 -49 1 -80 -14 -30 -16 -41 -18 -41 -8 0 7 4 17 10 23 6 6 4 18 -6 33
-13 18 -18 20 -25 10 -7 -12 -9 -12 -9 0 0 8 7 21 15 30 8 9 27 31 42 49 l26
34 17 -23 18 -22 11 21 c16 30 14 37 -15 51 -21 9 -33 8 -69 -8 -31 -14 -45
-16 -49 -8 -2 7 -5 -3 -5 -20 -1 -18 -3 -33 -6 -33 -2 0 -25 10 -49 22 -42 20
-46 20 -70 5 -23 -15 -24 -20 -14 -42 14 -31 22 -31 34 -4 9 21 13 19 52 -31
38 -47 42 -58 42 -106 0 -30 -2 -54 -5 -54 -3 0 -27 14 -53 30 -31 19 -63 30
-85 30 -31 0 -39 5 -53 33 -26 52 -84 105 -135 123 -31 12 -45 22 -42 31 3 8
-6 17 -25 24 -19 6 -32 19 -36 35 -9 33 -26 30 -60 -12 -20 -26 -27 -43 -23
-62 3 -17 -2 -37 -15 -54 l-19 -28 -42 40 c-23 22 -48 40 -54 40 -7 0 -31 -16
-53 -36 l-40 -36 -45 41 c-24 22 -50 41 -57 41 -7 0 -30 -17 -51 -37 l-38 -38
-25 29 c-17 20 -22 32 -15 39 7 7 15 6 25 -3 13 -10 17 -9 22 3 3 10 -7 32
-27 56 -18 23 -33 41 -33 41 -1 0 -7 -4 -15 -9z m711 -142 c23 -12 47 -36 61
-61 26 -46 44 -113 27 -103 -6 4 -7 -2 -2 -17 5 -14 4 -41 -3 -68 -9 -36 -16
-46 -35 -48 -35 -5 -46 -18 -30 -37 17 -21 -7 -40 -73 -56 -79 -19 -160 -3
-218 43 -30 24 -76 159 -48 142 8 -4 8 -1 2 12 -11 21 -10 53 1 98 10 42 -11
22 -24 -22 -5 -20 -10 -50 -11 -67 0 -26 -6 -19 -35 44 l-35 74 30 31 31 30
48 -47 48 -47 44 46 c80 81 137 95 222 53z m201 -194 c15 -19 33 -34 40 -32 7
1 11 -3 10 -9 -1 -7 6 -10 17 -7 13 4 20 0 20 -9 0 -10 -8 -13 -29 -10 -19 3
-30 -1 -34 -12 -4 -9 -2 -16 3 -16 6 0 10 -13 10 -30 0 -16 -2 -30 -4 -30 -2
0 -29 11 -60 25 -31 14 -63 25 -71 25 -8 0 -15 1 -15 3 1 20 34 105 47 119 23
26 34 23 66 -17z"/>
<path d="M1324 1391 c-45 -28 -64 -59 -64 -108 0 -63 47 -113 113 -120 79 -9
147 49 147 125 0 92 -116 152 -196 103z m133 -21 c43 -26 59 -80 36 -127 -32
-68 -131 -86 -183 -34 -40 40 -48 76 -24 120 33 61 108 80 171 41z"/>
<path d="M183 1079 c-35 -10 -47 -35 -13 -26 27 7 36 -10 16 -31 -8 -10 -14
-28 -13 -40 1 -20 6 -22 46 -20 55 4 65 -16 17 -32 -20 -6 -39 -16 -42 -22 -7
-11 -1 -10 64 8 33 9 28 -18 -8 -44 -35 -26 -37 -42 -11 -66 17 -16 21 -16 60
0 22 9 38 20 36 25 -3 4 -17 4 -31 -1 -64 -25 -90 4 -29 33 l34 16 -15 53 c-9
29 -19 56 -23 60 -4 4 -22 3 -41 -2 -47 -14 -55 -13 -40 5 7 9 20 15 29 14 33
-3 41 2 41 25 0 56 -13 63 -77 45z"/>
<path d="M340 770 c0 -12 -12 -26 -30 -35 -16 -9 -30 -20 -30 -25 0 -14 4 -13
44 11 33 19 36 20 42 4 4 -10 1 -21 -7 -26 -52 -30 -54 -34 -30 -68 27 -37 37
-36 20 3 -16 35 -4 45 19 16 16 -19 17 -28 8 -52 -9 -24 -7 -31 11 -49 11 -12
26 -18 32 -15 12 8 15 27 4 25 -37 -6 -47 33 -13 51 26 14 36 7 43 -27 4 -20
-1 -35 -16 -50 -26 -28 -15 -43 13 -18 21 19 21 19 14 -23 -7 -45 -1 -51 27
-26 17 15 18 14 12 -19 -5 -32 -2 -38 21 -49 22 -9 32 -9 49 1 21 14 21 13 4
-12 -16 -25 -16 -27 5 -42 32 -21 44 -19 23 5 -18 20 -18 21 3 43 26 27 31 57
7 37 -13 -11 -15 -9 -15 13 0 32 -23 51 -55 45 -21 -4 -23 -3 -15 13 15 28 12
31 -16 13 l-26 -17 8 38 c6 33 5 37 -10 32 -13 -5 -16 0 -16 23 0 33 -29 55
-59 45 -13 -4 -20 1 -25 17 -10 39 -6 44 14 18 34 -45 31 -14 -5 45 -19 33
-35 62 -35 67 0 4 -4 8 -10 8 -5 0 -10 -9 -10 -20z"/>
<path d="M2285 596 c-13 -19 -14 -29 -5 -45 12 -23 1 -28 -18 -9 -6 6 -15 8
-19 4 -5 -4 4 -17 20 -28 15 -11 27 -27 27 -36 0 -8 -3 -12 -7 -9 -3 4 -12 2
-19 -4 -9 -7 -22 -6 -44 6 -40 21 -46 14 -32 -32 6 -20 10 -38 8 -40 -1 -2
-13 6 -26 17 -28 24 -29 24 -60 0 l-25 -19 29 -30 c34 -36 25 -40 -22 -11 -18
11 -37 18 -42 15 -5 -3 -3 -26 5 -51 12 -40 12 -45 -2 -40 -8 3 -17 6 -19 6
-2 0 -4 9 -4 20 0 11 -6 23 -14 26 -18 7 -148 -64 -141 -76 3 -5 12 -7 19 -4
8 3 20 -9 30 -31 10 -19 21 -33 27 -30 5 4 2 19 -7 36 -15 30 -13 59 3 59 5 0
17 -16 27 -35 23 -41 39 -46 30 -9 -7 26 -6 27 27 21 41 -8 62 3 57 29 -2 15
3 19 24 19 32 1 88 39 88 60 0 9 6 12 16 8 13 -5 15 -2 10 14 -7 22 16 49 33
38 6 -3 23 5 38 19 25 23 26 28 14 47 -12 20 -11 21 4 15 24 -9 65 19 65 44 0
26 -34 60 -60 60 -11 0 -27 -11 -35 -24z"/>
<path d="M1073 145 c-10 -45 0 -74 12 -35 8 26 19 25 33 -4 6 -14 22 -26 42
-30 48 -9 82 -7 75 4 -3 6 -17 10 -31 10 -13 0 -24 5 -24 10 0 6 11 10 25 10
14 0 25 5 25 10 0 6 -9 10 -20 10 -11 0 -20 5 -20 10 0 6 13 10 29 10 28 0 30
-2 34 -47 3 -39 5 -44 11 -25 5 12 17 22 27 22 11 0 19 5 19 10 0 6 -6 10 -14
10 -8 0 -18 5 -21 10 -4 6 7 10 24 10 29 0 31 -2 31 -40 0 -39 1 -40 36 -40
21 0 33 4 29 10 -3 5 -15 10 -26 10 -16 0 -19 7 -19 40 l0 40 -47 0 c-27 0
-65 4 -86 9 -22 5 -39 5 -43 0 -3 -5 -15 -2 -27 6 -41 29 -63 20 -74 -30z"/>
</g>
</svg>
